<svg xmlns="http://www.w3.org/2000/svg" viewBox="0 0 240 240" fill="none">
  <defs>
    <linearGradient id="g" x1="0" y1="0" x2="1" y2="1">
      <stop offset="0%" stop-color="#7fffd4"/>
      <stop offset="100%" stop-color="#7ab9ff"/>
    </linearGradient>
  </defs>
  <rect width="240" height="240" rx="36" fill="#060914"/>
  <rect x="20" y="20" width="200" height="200" rx="28" fill="url(#g)" opacity="0.1"/>
  <path d="M80 70h40c28 0 44 14 44 36 0 17-10 30-26 34l30 30c3 3 1 10-4 10h-20c-2 0-5-1-6-2l-36-38h-8v32c0 4-4 8-8 8h-6c-5 0-8-4-8-8V78c0-5 3-8 8-8Zm32 52c14 0 22-6 22-16s-8-16-22-16h-18v32h18Z" fill="#e8edff"/>
</svg>
